<?xml version="1.0" encoding="UTF-8" standalone="no"?>
<!-- Created with Inkscape (http://www.inkscape.org/) -->

<svg
   width="210mm"
   height="145mm"
   viewBox="0 0 210 145"
   version="1.1"
   id="svg1"
   inkscape:version="1.3.2 (091e20e, 2023-11-25, custom)"
   sodipodi:docname="Logo-AI-LC-caiyun.svg"
   inkscape:export-filename="Logo-AI-LC-a.png"
   inkscape:export-xdpi="31.451235"
   inkscape:export-ydpi="31.451235"
   xmlns:inkscape="http://www.inkscape.org/namespaces/inkscape"
   xmlns:sodipodi="http://sodipodi.sourceforge.net/DTD/sodipodi-0.dtd"
   xmlns="http://www.w3.org/2000/svg"
   xmlns:svg="http://www.w3.org/2000/svg">
  <sodipodi:namedview
     id="namedview1"
     pagecolor="#ffffff"
     bordercolor="#000000"
     borderopacity="0.25"
     inkscape:showpageshadow="2"
     inkscape:pageopacity="0.0"
     inkscape:pagecheckerboard="0"
     inkscape:deskcolor="#d1d1d1"
     inkscape:document-units="mm"
     inkscape:zoom="0.4944234"
     inkscape:cx="396.42137"
     inkscape:cy="561.25984"
     inkscape:window-width="1536"
     inkscape:window-height="793"
     inkscape:window-x="-8"
     inkscape:window-y="73"
     inkscape:window-maximized="1"
     inkscape:current-layer="layer1" />
  <defs
     id="defs1" />
  <g
     inkscape:label="Ebene 1"
     inkscape:groupmode="layer"
     id="layer1">
    <path
       id="path3116-1-2"
       d="m 107.48341,22.354277 v 0 c -0.21619,0 -0.43239,0 -0.64859,0 v 0 C 72.964056,22.780071 45.651252,49.818335 45.795386,83.101636 v 0 C 45.939517,116.24304 73.108187,143.0684 106.83482,143.4942 v 0 C 90.187698,143.0684 76.711462,129.65572 76.711462,113.19149 v 0 c 0,-16.677164 13.836569,-30.302714 30.916078,-30.302714 v 0 c 17.07951,0 30.98815,-13.55466 30.98815,-30.231757 v 0 c 0,-16.748114 -13.83657,-30.231778 -30.77195,-30.302742 v 0 c -0.14414,0 -0.28827,0 -0.36033,0 z"
       style="fill:#d7e3f4;fill-opacity:1;fill-rule:evenodd;stroke:none;stroke-width:0.282222"
       inkscape:connector-curvature="0" />
    <path
       id="path3118-6-9"
       d="m 107.84374,143.4942 v 0 c 0.21619,0 0.43239,0 0.57652,0 v 0 c 33.94283,-0.4258 61.18358,-27.46408 61.11151,-60.818354 v 0 C 169.38763,49.60541 142.14689,22.780071 108.42026,22.354277 v 0 c 16.71919,0.425794 30.19543,13.767494 30.19543,30.302742 v 0 c 0,16.677097 -13.90864,30.231757 -30.98815,30.231757 v 0 c -17.079509,0 -30.916078,13.55459 -30.916078,30.302714 v 0 c 0,16.6771 13.692438,30.23175 30.771948,30.30271 v 0 c 0.14413,0 0.21619,0 0.36033,0 z"
       style="fill:#214478;fill-opacity:1;fill-rule:evenodd;stroke:none;stroke-width:0.282222"
       inkscape:connector-curvature="0" />
    <text
       xml:space="preserve"
       style="font-size:33.1611px;fill:#e6e6e6;stroke-width:0.264583"
       x="89.980286"
       y="122.40868"
       id="text2"><tspan
         sodipodi:role="line"
         id="tspan2"
         style="font-style:normal;font-variant:normal;font-weight:normal;font-stretch:normal;font-size:33.1611px;font-family:STCaiyun;-inkscape-font-specification:STCaiyun;stroke-width:0.264583"
         x="89.980286"
         y="122.40868">LC</tspan></text>
    <text
       xml:space="preserve"
       style="font-size:29.6333px;font-family:'Snap ITC';-inkscape-font-specification:'Snap ITC';fill:#666666;fill-opacity:1;stroke-width:0.264583"
       x="72.493896"
       y="63.59753"
       id="text1"><tspan
         sodipodi:role="line"
         id="tspan1"
         style="font-style:normal;font-variant:normal;font-weight:normal;font-stretch:normal;font-family:STCaiyun;-inkscape-font-specification:STCaiyun;stroke-width:0.264583"
         x="72.493896"
         y="63.59753">明白</tspan></text>
  </g>
</svg>
